<svg width="149" height="70" viewBox="0 0 149 70" fill="none" xmlns="http://www.w3.org/2000/svg">
<g clip-path="url(#clip0_2_899)">
<g clip-path="url(#clip1_2_899)">
<path d="M63.9721 35.7786C64.3077 31.8452 65.1151 28.5216 66.3492 25.8904C67.7726 27.3461 69.4246 28.5592 71.2396 29.4815C73.3684 30.6283 75.6429 31.2133 77.998 31.2133C81.7905 31.2133 85.5273 29.5927 87.5736 27.1283C87.8805 27.8082 88.0991 28.4689 88.2199 29.1363C89.0858 33.5616 88.9295 41.2329 86.5466 47.7515C84.5684 53.246 80.2035 56.6588 75.1472 56.6588C74.8691 56.6588 74.5929 56.653 74.3101 56.63C71.6664 56.4535 69.4436 55.3125 67.707 53.2527C64.6587 49.6185 63.2961 43.2514 63.9721 35.7786ZM83.2624 19.9308C83.1003 19.9193 82.945 19.9193 82.7772 19.9193C82.7484 19.9193 79.8391 19.9308 79.7739 20.9377C79.6838 21.5168 80.4451 21.6741 80.7328 21.7336C82.2057 21.979 84.4859 23.0137 86.1832 24.9929C86.1221 25.19 86.0448 25.3818 85.9521 25.5663C85.3921 26.7544 83.3314 27.5148 80.7328 27.5148C77.9059 27.5148 73.8939 26.5846 71.0431 23.9726C70.3339 23.3054 69.6887 22.5735 69.1157 21.7863C71.2396 19.5079 74.0205 18.0274 77.2529 17.3725C77.8891 17.2585 78.5341 17.2017 79.1803 17.2027C82.1414 17.2027 84.6931 18.4896 85.8706 20.509C85.0853 20.2108 84.2251 20.0229 83.2614 19.9299M89.4262 22.7682C89.7494 20.7785 89.3112 18.9757 88.1509 17.5537C86.5342 15.5697 83.7054 14.4814 80.167 14.4814C79.3597 14.4814 78.5225 14.5399 77.6739 14.6511C74.2573 15.1018 70.6835 16.5526 67.5613 18.7705C66.2054 15.119 66.6091 11.6142 67.3657 10.2325C67.5613 9.8815 67.5785 9.50657 67.4059 9.20259C67.2046 8.84109 66.7712 8.63013 66.2409 8.63013C65.7844 8.63013 64.2032 8.81711 62.7946 11.2288C61.502 13.4246 61.386 17.9296 63.6672 22.1718C59.4931 26.6431 57.184 32.1904 56.7602 38.663C56.4514 44.4864 58.2638 50.0692 61.7676 53.9729C64.7805 57.3319 68.8088 59.1864 73.4154 59.3504C73.6168 59.3562 73.8191 59.3562 74.0205 59.3562C85.5273 59.3562 93.6176 46.9863 93.9292 35.3807C94.0616 30.3589 92.3355 25.549 89.4272 22.7692" fill="black"/>
<path d="M95.5958 44.4778C97.1943 33.9491 97.6565 29.3847 97.0342 23.5804C97.0342 23.5804 101.166 21.4143 103.302 23.6562C105.362 25.6699 105.137 29.4614 102.701 40.6863C100.329 51.7808 100.404 55.9367 102.394 56.2465C104.3 56.5754 105.904 53.5375 106.366 51.9103C106.435 51.6763 107.74 51.987 106.823 54.1512C105.824 56.5754 102.315 59.9622 98.8053 59.1845C95.5153 58.4059 93.9916 54.4619 95.5958 44.4778Z" fill="black"/>
<path d="M109.791 36.5841C108.648 36.5841 106.426 34.2616 106.623 32.0897C106.888 29.843 109.105 28.374 111.24 28.374C113.451 28.374 115.131 29.843 114.98 32.0897C114.75 34.2616 110.933 36.5841 109.791 36.5841ZM105.515 44.4788C106.732 39.3697 110.323 39.4464 112.613 41.7699C112.77 41.8456 111.24 45.3331 110.853 50.1315C110.459 54.2346 111.315 55.8562 112.533 56.0134C114.437 56.3241 115.817 53.5385 116.348 51.9112C116.423 51.6773 117.727 51.9879 116.81 54.1522C115.736 56.5753 112.377 59.8816 108.868 59.1155C104.902 58.1786 104.216 49.863 105.515 44.4788Z" fill="black"/>
<path d="M127.882 43.2332C126.202 42.3078 121.082 48.7277 120.626 57.7874V58.5651C118.26 59.6486 115.738 59.3379 115.432 56.5753C115.253 54.2289 115.253 51.5133 115.432 47.809C115.662 44.7079 115.662 42.0796 115.357 39.2125C115.738 39.0543 119.553 36.9648 121.614 38.826C122.925 40.0611 123.218 41.9981 122.451 45.5566C125.353 40.9922 129.556 38.826 132.604 39.7504C135.126 40.5233 133.983 43.0807 133.296 48.5762C132.684 53.6986 132.91 55.6164 134.208 56.0019C135.812 56.5753 137.417 53.9882 138.023 51.8997C138.104 51.6658 139.397 51.9764 138.479 54.1416C137.106 57.3127 133.365 60.2566 130.081 59.2497C127.328 58.3963 126.76 55.1475 127.408 50.0385C128.032 45.7081 128.678 43.6186 127.882 43.2332Z" fill="black"/>
<path d="M141.473 36.5841C140.324 36.5841 138.118 34.2616 138.344 32.0897C138.569 29.843 140.785 28.374 142.927 28.374C145.137 28.374 146.822 29.843 146.667 32.0897C146.43 34.2616 142.615 36.5841 141.473 36.5841ZM137.196 44.4788C138.418 39.3697 142.003 39.4464 144.289 41.7699C144.445 41.8456 142.915 45.3331 142.534 50.1315C142.153 54.2346 142.996 55.8562 144.22 56.0134C146.124 56.3241 147.498 53.5385 148.03 51.9112C148.104 51.6773 149.403 51.9879 148.491 54.1522C147.423 56.5753 144.02 59.8816 140.554 59.1155C136.589 58.1786 135.897 49.863 137.196 44.4788Z" fill="black"/>
<path d="M21.555 0C21.0851 3.03685 20.3218 5.82534 19.2565 8.44795C13.3899 23.4414 0.184814 32.6603 0.184814 48.4553C0.184814 60.9479 10.4882 70 23.1985 70C24.7021 70 26.173 69.8677 27.6028 69.626C38.2063 67.8041 46.2122 59.4521 46.2122 48.4544C46.2122 32.5452 36.043 15.3425 21.555 0Z" fill="#A3BB33"/>
</g>
</g>
<defs>
<clipPath id="clip0_2_899">
<rect width="149" height="70" fill="white"/>
</clipPath>
<clipPath id="clip1_2_899">
<rect width="148.63" height="70" fill="white" transform="translate(0.184814)"/>
</clipPath>
</defs>
</svg>
